<svg width="50" height="50" viewBox="0 0 50 50" fill="none" xmlns="http://www.w3.org/2000/svg">
<g id="GitHub">
<path id="Vector" d="M22.7083 4.375C13.125 5.41667 5.41665 13.125 4.37499 22.5C3.33332 32.2917 8.95832 41.0417 17.5 44.375C18.125 44.5833 18.75 44.1667 18.75 43.3333V40C18.75 40 17.9167 40.2083 16.875 40.2083C13.9583 40.2083 12.7083 37.7083 12.5 36.25C12.2917 35.4167 11.875 34.7917 11.25 34.1667C10.625 33.9583 10.4167 33.9583 10.4167 33.75C10.4167 33.3333 11.0417 33.3333 11.25 33.3333C12.5 33.3333 13.5417 34.7917 13.9583 35.4167C15 37.0833 16.25 37.5 16.875 37.5C17.7083 37.5 18.3333 37.2917 18.75 37.0833C18.9583 35.625 19.5833 34.1667 20.8333 33.3333C16.0417 32.2917 12.5 29.5833 12.5 25C12.5 22.7083 13.5417 20.4167 15 18.75C14.7917 18.3333 14.5833 17.2917 14.5833 15.8333C14.5833 15 14.5833 13.9583 15 13.125C15 12.7083 15.4167 12.5 15.625 12.5H15.8333C16.875 12.7083 18.9583 13.3333 20.8333 15.2083C22.0833 14.7917 23.5417 14.5833 25 14.5833C26.4583 14.5833 27.9167 14.7917 29.1667 15.2083C31.0417 13.3333 33.3333 12.7083 34.375 12.5H34.5833C35 12.5 35.2083 12.7083 35.4167 13.125C35.4167 13.9583 35.4167 15 35.4167 15.8333C35.4167 17.5 35.2083 18.3333 35 18.75C36.4583 20.4167 37.5 22.5 37.5 25C37.5 29.5833 33.9583 32.2917 29.1667 33.3333C30.4167 34.375 31.25 36.25 31.25 38.125V43.5417C31.25 44.1667 31.875 44.7917 32.7083 44.5833C40.4167 41.4583 45.8333 33.9583 45.8333 25.2083C45.8333 12.7083 35.2083 2.91667 22.7083 4.375Z" fill="white"/>
</g>
</svg>
