<svg width="50" height="50" viewBox="0 0 50 50" fill="none" xmlns="http://www.w3.org/2000/svg">
<g id="LinkedIn">
<path id="Vector" d="M39.5833 6.25H10.4167C8.11458 6.25 6.25 8.11458 6.25 10.4167V39.5833C6.25 41.8854 8.11458 43.75 10.4167 43.75H39.5833C41.8854 43.75 43.75 41.8854 43.75 39.5833V10.4167C43.75 8.11458 41.8854 6.25 39.5833 6.25ZM16.1208 35.4167C14.6687 35.4167 13.4917 34.2396 13.4917 32.7875V23.4604C13.4937 22.0104 14.6708 20.8333 16.1208 20.8333C17.5729 20.8333 18.75 22.0104 18.75 23.4625V32.7896C18.75 34.2396 17.5729 35.4167 16.1208 35.4167ZM16.0292 18.1604C14.4229 18.1604 13.35 17.0896 13.35 15.6604C13.35 14.2313 14.4208 13.1604 16.2062 13.1604C17.8125 13.1604 18.8854 14.2313 18.8854 15.6604C18.8854 17.0896 17.8146 18.1604 16.0292 18.1604ZM34.9562 35.4167C33.5521 35.4167 32.4125 34.2771 32.4125 32.8729V27.4458C32.4125 25.2417 31.0562 25 30.5479 25C30.0396 25 28.3437 25.0729 28.3437 27.4458V32.8729C28.3437 34.2771 27.2042 35.4167 25.8 35.4167H25.6313C24.2271 35.4167 23.0875 34.2771 23.0875 32.8729V23.4625C23.0875 22.0104 24.2646 20.8333 25.7167 20.8333C27.1687 20.8333 28.3458 22.0104 28.3458 23.4625C28.3458 23.4625 28.9333 20.8333 32.925 20.8333C35.4646 20.8333 37.5 22.8687 37.5 27.4458V32.8729C37.5 34.2771 36.3604 35.4167 34.9562 35.4167Z" fill="white"/>
</g>
</svg>
